<svg xmlns="http://www.w3.org/2000/svg" viewBox="237.162 237.080 550.558 550.558"><style>@media (prefers-color-scheme: dark) {:root {--araihu-logo-auto-surface: #07111f;--araihu-logo-auto-ink: #f3f2e9;--araihu-logo-auto-signal: #c7ff4a;}}</style><path fill="var(--araihu-logo-ink, var(--araihu-logo-auto-ink, #07111f))" d="m415.291 308.688.101-.011c45.971-3.372 79.148 17.869 109.165 50.276 12.534 13.533 23.461 27.293 37.827 38.832 25.31 20.33 56.553 18.557 80.905-2.638a119.4 119.4 0 0 0 12.424-12.702c3.156-3.736 6.148-7.594 9.41-11.288 18.792-21.285 53.773-10.406 56.321 18.157 2.113 18.481-12.259 28.914-22.772 41.203-21.551 25.191-50.666 46.661-85.049 49.448-50.909 5.086-84.477-17.486-117.031-53.562-10.886-12.064-21.823-25.791-34.741-35.643-26.305-20.06-56.43-17.945-81.248 3.3-14.547 11.61-19.323 29.802-39.898 32.231-19.15 2.497-34.589-11.361-36.723-30.126-2.347-20.632 10.546-27.55 22.961-40.762 25.472-27.109 50.69-42.617 88.348-46.715"></path><path fill="var(--araihu-logo-ink, var(--araihu-logo-auto-ink, #07111f))" d="M419.428 546.685c12.108-.935 23.375 1.03 35.122 3.738 32.331 7.456 56.937 28.254 78.645 52.237 9.272 10.243 18.268 20.932 29.034 29.656 11.436 9.267 24.358 15.087 39.24 15.078 48.751-.028 55.516-47.475 84.23-49.893 7.481-.63 16.787 2.035 22.599 6.822 7.288 6.004 12.044 13.836 12.924 23.341.857 9.264-2.589 18.032-8.497 25.057-3.977 4.728-8.614 9.048-12.8 13.61-28.655 31.228-51.719 46.206-94.933 49.99-8.218.379-15.805-.821-23.738-1.999-35.636-5.292-61.26-28.063-84.701-53.466-11.008-11.722-21.788-24.478-34.719-34.118-16.534-12.337-38.828-15.162-57.852-8.175-22.464 8.251-31.966 25.088-47.181 40.894-8.508 8.839-29.625 8.291-40.115.315a33.32 33.32 0 0 1-12.92-22.192c-1.156-8.804.791-19.359 6.946-26.152 33.181-36.625 57.844-58.624 108.716-64.743"></path><path fill="var(--araihu-logo-ink, var(--araihu-logo-auto-ink, #07111f))" d="M466.476 515.744c-27.481-26.899-63.508-24.24-89.843 1.941-11.276 11.209-16.154 25.538-32.76 28.922-19.092 3.89-36.541-7.111-40.02-26.546-3.932-21.951 11.491-31.54 24.325-45.527 22.227-24.222 47.025-41.898 80.406-46.437 32.047-4.7 60.259 4.558 86.273 22.816 7.865 5.451 14.43 11.162 21.98 16.724 10.196 9.103 33.693 31.929 42.041 42.275-16.368 15.841-33.811 32.2-49.791 48.329z"></path><path fill="var(--araihu-logo-signal, var(--araihu-logo-auto-signal, #c7ff4a))" d="M466.476 515.744c16.248-13.475 34.226-33.617 50.361-48.107 10.196 9.103 33.693 31.929 42.041 42.275-16.368 15.841-33.811 32.2-49.791 48.329z"></path><path fill="var(--araihu-logo-ink, var(--araihu-logo-auto-ink, #07111f))" d="M558.878 509.912c2.945 3.894 6.624 6.165 10.294 9.042 8.652 6.78 16.462 9.521 27.119 10.873 24.686 3.131 43.507-9.703 58.245-28.275 10.086-12.708 19.973-25.987 38.167-23.336 18.353 2.053 30.319 19.397 28.157 37.234a31.4 31.4 0 0 1-4.367 12.592c-3.69 6.016-11.181 13.148-16.006 18.538-9.155 10.228-15.898 18.505-26.94 27.063-25.69 19.912-56.067 29.195-88.454 24.65-31.466-4.416-52.772-20.551-76.006-40.052 15.98-16.129 33.423-32.488 49.791-48.329"></path></svg>
